G04 #@! TF.GenerationSoftware,KiCad,Pcbnew,(6.0.0)*
G04 #@! TF.CreationDate,2023-04-02T19:18:08+10:00*
G04 #@! TF.ProjectId,OpenFlops,4f70656e-466c-46f7-9073-2e6b69636164,1*
G04 #@! TF.SameCoordinates,Original*
G04 #@! TF.FileFunction,Legend,Bot*
G04 #@! TF.FilePolarity,Positive*
%FSLAX46Y46*%
G04 Gerber Fmt 4.6, Leading zero omitted, Abs format (unit mm)*
G04 Created by KiCad (PCBNEW (6.0.0)) date 2023-04-02 19:18:08*
%MOMM*%
%LPD*%
G01*
G04 APERTURE LIST*
G04 #@! TA.AperFunction,Profile*
%ADD10C,0.050000*%
G04 #@! TD*
G04 #@! TA.AperFunction,Profile*
%ADD11C,0.200000*%
G04 #@! TD*
%ADD12C,0.150000*%
G04 APERTURE END LIST*
D10*
X207450002Y-129425000D02*
X205275002Y-129425000D01*
X206973979Y-151605672D02*
G75*
G03*
X207448978Y-151129327I-674J475673D01*
G01*
D11*
X118225005Y-75300000D02*
G75*
G03*
X118225005Y-75300000I-1500005J0D01*
G01*
D10*
X154221823Y-42670673D02*
X154200002Y-86645673D01*
X188400001Y-120845674D02*
X200371621Y-120795672D01*
X207450000Y-131600000D02*
X205275000Y-131600000D01*
X110448671Y-151130873D02*
G75*
G03*
X110925018Y-151605876I475675J672D01*
G01*
X207446620Y-127870673D02*
X207450002Y-129425000D01*
X110923432Y-35605876D02*
X147146823Y-35595673D01*
X110923432Y-35605876D02*
G75*
G03*
X110448432Y-36082225I678J-475678D01*
G01*
X205275002Y-129425000D02*
X205275000Y-131600000D01*
X154200002Y-86645673D02*
G75*
G03*
X188400001Y-120845674I34199996J-5D01*
G01*
X207446620Y-127870673D02*
G75*
G03*
X200371621Y-120795672I-7074998J3D01*
G01*
X154221823Y-42670673D02*
G75*
G03*
X147146823Y-35595673I-7075002J-2D01*
G01*
X207448978Y-151129327D02*
X207450000Y-131600000D01*
X110448671Y-151130873D02*
X110448432Y-36082225D01*
X206973979Y-151605672D02*
X110925018Y-151605876D01*
D11*
X185150005Y-127400000D02*
G75*
G03*
X185150005Y-127400000I-1500005J0D01*
G01*
D12*
X130457047Y-98321428D02*
X130076095Y-98321428D01*
X130876095Y-98588095D02*
X130457047Y-98321428D01*
X130876095Y-98054761D01*
X130076095Y-97673809D02*
X130114190Y-97750000D01*
X130152285Y-97788095D01*
X130228476Y-97826190D01*
X130457047Y-97826190D01*
X130533238Y-97788095D01*
X130571333Y-97750000D01*
X130609428Y-97673809D01*
X130609428Y-97559523D01*
X130571333Y-97483333D01*
X130533238Y-97445238D01*
X130457047Y-97407142D01*
X130228476Y-97407142D01*
X130152285Y-97445238D01*
X130114190Y-97483333D01*
X130076095Y-97559523D01*
X130076095Y-97673809D01*
X130609428Y-96721428D02*
X130076095Y-96721428D01*
X130609428Y-97064285D02*
X130190380Y-97064285D01*
X130114190Y-97026190D01*
X130076095Y-96950000D01*
X130076095Y-96835714D01*
X130114190Y-96759523D01*
X130152285Y-96721428D01*
X130076095Y-96340476D02*
X130609428Y-96340476D01*
X130457047Y-96340476D02*
X130533238Y-96302380D01*
X130571333Y-96264285D01*
X130609428Y-96188095D01*
X130609428Y-96111904D01*
X130609428Y-95350000D02*
X130609428Y-95045238D01*
X130076095Y-95235714D02*
X130761809Y-95235714D01*
X130838000Y-95197619D01*
X130876095Y-95121428D01*
X130876095Y-95045238D01*
X130076095Y-94778571D02*
X130609428Y-94778571D01*
X130876095Y-94778571D02*
X130838000Y-94816666D01*
X130799904Y-94778571D01*
X130838000Y-94740476D01*
X130876095Y-94778571D01*
X130799904Y-94778571D01*
X130076095Y-94283333D02*
X130114190Y-94359523D01*
X130190380Y-94397619D01*
X130876095Y-94397619D01*
X130114190Y-93673809D02*
X130076095Y-93750000D01*
X130076095Y-93902380D01*
X130114190Y-93978571D01*
X130190380Y-94016666D01*
X130495142Y-94016666D01*
X130571333Y-93978571D01*
X130609428Y-93902380D01*
X130609428Y-93750000D01*
X130571333Y-93673809D01*
X130495142Y-93635714D01*
X130418952Y-93635714D01*
X130342761Y-94016666D01*
X130114190Y-93330952D02*
X130076095Y-93254761D01*
X130076095Y-93102380D01*
X130114190Y-93026190D01*
X130190380Y-92988095D01*
X130228476Y-92988095D01*
X130304666Y-93026190D01*
X130342761Y-93102380D01*
X130342761Y-93216666D01*
X130380857Y-93292857D01*
X130457047Y-93330952D01*
X130495142Y-93330952D01*
X130571333Y-93292857D01*
X130609428Y-93216666D01*
X130609428Y-93102380D01*
X130571333Y-93026190D01*
X129321428Y-98530952D02*
X128673809Y-98530952D01*
X128597619Y-98569047D01*
X128559523Y-98607142D01*
X128521428Y-98683333D01*
X128521428Y-98797619D01*
X128559523Y-98873809D01*
X128826190Y-98530952D02*
X128788095Y-98607142D01*
X128788095Y-98759523D01*
X128826190Y-98835714D01*
X128864285Y-98873809D01*
X128940476Y-98911904D01*
X129169047Y-98911904D01*
X129245238Y-98873809D01*
X129283333Y-98835714D01*
X129321428Y-98759523D01*
X129321428Y-98607142D01*
X129283333Y-98530952D01*
X128788095Y-98035714D02*
X128826190Y-98111904D01*
X128864285Y-98150000D01*
X128940476Y-98188095D01*
X129169047Y-98188095D01*
X129245238Y-98150000D01*
X129283333Y-98111904D01*
X129321428Y-98035714D01*
X129321428Y-97921428D01*
X129283333Y-97845238D01*
X129245238Y-97807142D01*
X129169047Y-97769047D01*
X128940476Y-97769047D01*
X128864285Y-97807142D01*
X128826190Y-97845238D01*
X128788095Y-97921428D01*
X128788095Y-98035714D01*
X129321428Y-96930952D02*
X129321428Y-96626190D01*
X129588095Y-96816666D02*
X128902380Y-96816666D01*
X128826190Y-96778571D01*
X128788095Y-96702380D01*
X128788095Y-96626190D01*
X128788095Y-96359523D02*
X129588095Y-96359523D01*
X128788095Y-96016666D02*
X129207142Y-96016666D01*
X129283333Y-96054761D01*
X129321428Y-96130952D01*
X129321428Y-96245238D01*
X129283333Y-96321428D01*
X129245238Y-96359523D01*
X128788095Y-95635714D02*
X129321428Y-95635714D01*
X129169047Y-95635714D02*
X129245238Y-95597619D01*
X129283333Y-95559523D01*
X129321428Y-95483333D01*
X129321428Y-95407142D01*
X128788095Y-95026190D02*
X128826190Y-95102380D01*
X128864285Y-95140476D01*
X128940476Y-95178571D01*
X129169047Y-95178571D01*
X129245238Y-95140476D01*
X129283333Y-95102380D01*
X129321428Y-95026190D01*
X129321428Y-94911904D01*
X129283333Y-94835714D01*
X129245238Y-94797619D01*
X129169047Y-94759523D01*
X128940476Y-94759523D01*
X128864285Y-94797619D01*
X128826190Y-94835714D01*
X128788095Y-94911904D01*
X128788095Y-95026190D01*
X129321428Y-94073809D02*
X128788095Y-94073809D01*
X129321428Y-94416666D02*
X128902380Y-94416666D01*
X128826190Y-94378571D01*
X128788095Y-94302380D01*
X128788095Y-94188095D01*
X128826190Y-94111904D01*
X128864285Y-94073809D01*
X129321428Y-93350000D02*
X128673809Y-93350000D01*
X128597619Y-93388095D01*
X128559523Y-93426190D01*
X128521428Y-93502380D01*
X128521428Y-93616666D01*
X128559523Y-93692857D01*
X128826190Y-93350000D02*
X128788095Y-93426190D01*
X128788095Y-93578571D01*
X128826190Y-93654761D01*
X128864285Y-93692857D01*
X128940476Y-93730952D01*
X129169047Y-93730952D01*
X129245238Y-93692857D01*
X129283333Y-93654761D01*
X129321428Y-93578571D01*
X129321428Y-93426190D01*
X129283333Y-93350000D01*
X128788095Y-92969047D02*
X129588095Y-92969047D01*
X128788095Y-92626190D02*
X129207142Y-92626190D01*
X129283333Y-92664285D01*
X129321428Y-92740476D01*
X129321428Y-92854761D01*
X129283333Y-92930952D01*
X129245238Y-92969047D01*
X128033428Y-99102380D02*
X128033428Y-98797619D01*
X128300095Y-98988095D02*
X127614380Y-98988095D01*
X127538190Y-98950000D01*
X127500095Y-98873809D01*
X127500095Y-98797619D01*
X127500095Y-98530952D02*
X128300095Y-98530952D01*
X127500095Y-98188095D02*
X127919142Y-98188095D01*
X127995333Y-98226190D01*
X128033428Y-98302380D01*
X128033428Y-98416666D01*
X127995333Y-98492857D01*
X127957238Y-98530952D01*
X127538190Y-97502380D02*
X127500095Y-97578571D01*
X127500095Y-97730952D01*
X127538190Y-97807142D01*
X127614380Y-97845238D01*
X127919142Y-97845238D01*
X127995333Y-97807142D01*
X128033428Y-97730952D01*
X128033428Y-97578571D01*
X127995333Y-97502380D01*
X127919142Y-97464285D01*
X127842952Y-97464285D01*
X127766761Y-97845238D01*
X127538190Y-97159523D02*
X127500095Y-97083333D01*
X127500095Y-96930952D01*
X127538190Y-96854761D01*
X127614380Y-96816666D01*
X127652476Y-96816666D01*
X127728666Y-96854761D01*
X127766761Y-96930952D01*
X127766761Y-97045238D01*
X127804857Y-97121428D01*
X127881047Y-97159523D01*
X127919142Y-97159523D01*
X127995333Y-97121428D01*
X128033428Y-97045238D01*
X128033428Y-96930952D01*
X127995333Y-96854761D01*
X127538190Y-96169047D02*
X127500095Y-96245238D01*
X127500095Y-96397619D01*
X127538190Y-96473809D01*
X127614380Y-96511904D01*
X127919142Y-96511904D01*
X127995333Y-96473809D01*
X128033428Y-96397619D01*
X128033428Y-96245238D01*
X127995333Y-96169047D01*
X127919142Y-96130952D01*
X127842952Y-96130952D01*
X127766761Y-96511904D01*
X128033428Y-95254761D02*
X127500095Y-95102380D01*
X127881047Y-94950000D01*
X127500095Y-94797619D01*
X128033428Y-94645238D01*
X127500095Y-94340476D02*
X128033428Y-94340476D01*
X128300095Y-94340476D02*
X128262000Y-94378571D01*
X128223904Y-94340476D01*
X128262000Y-94302380D01*
X128300095Y-94340476D01*
X128223904Y-94340476D01*
X127500095Y-93959523D02*
X128033428Y-93959523D01*
X127881047Y-93959523D02*
X127957238Y-93921428D01*
X127995333Y-93883333D01*
X128033428Y-93807142D01*
X128033428Y-93730952D01*
X127538190Y-93159523D02*
X127500095Y-93235714D01*
X127500095Y-93388095D01*
X127538190Y-93464285D01*
X127614380Y-93502380D01*
X127919142Y-93502380D01*
X127995333Y-93464285D01*
X128033428Y-93388095D01*
X128033428Y-93235714D01*
X127995333Y-93159523D01*
X127919142Y-93121428D01*
X127842952Y-93121428D01*
X127766761Y-93502380D01*
X127538190Y-92816666D02*
X127500095Y-92740476D01*
X127500095Y-92588095D01*
X127538190Y-92511904D01*
X127614380Y-92473809D01*
X127652476Y-92473809D01*
X127728666Y-92511904D01*
X127766761Y-92588095D01*
X127766761Y-92702380D01*
X127804857Y-92778571D01*
X127881047Y-92816666D01*
X127919142Y-92816666D01*
X127995333Y-92778571D01*
X128033428Y-92702380D01*
X128033428Y-92588095D01*
X127995333Y-92511904D01*
M02*
