M48
; DRILL file {KiCad (6.0.0)} date Sat Apr 15 12:26:27 2023
; FORMAT={-:-/ absolute / inch / decimal}
; #@! TF.CreationDate,2023-04-15T12:26:27+10:00
; #@! TF.GenerationSoftware,Kicad,Pcbnew,(6.0.0)
; #@! TF.FileFunction,Plated,1,2,PTH
FMAT,2
INCH
; #@! TA.AperFunction,Plated,PTH,ViaDrill
T1C0.0079
; #@! TA.AperFunction,Plated,PTH,ViaDrill
T2C0.0157
; #@! TA.AperFunction,Plated,PTH,ComponentDrill
T3C0.0354
; #@! TA.AperFunction,Plated,PTH,ComponentDrill
T4C0.0362
; #@! TA.AperFunction,Plated,PTH,ComponentDrill
T5C0.0390
; #@! TA.AperFunction,Plated,PTH,ComponentDrill
T6C0.0394
; #@! TA.AperFunction,Plated,PTH,ComponentDrill
T7C0.0512
; #@! TA.AperFunction,Plated,PTH,ComponentDrill
T8C0.0906
%
G90
G05
T1
X4.7441Y-2.5451
X4.8799Y-2.6575
X4.8878Y-4.6781
X4.9186Y-2.4191
X4.939Y-4.4703
X4.94Y-4.5404
X4.9449Y-4.6081
X4.9596Y-4.6284
X4.9645Y-4.6731
X4.9823Y-4.8091
X4.9911Y-3.1888
X5.0039Y-4.3246
X5.0039Y-4.4291
X5.0049Y-4.624
X5.0101Y-3.1416
X5.0252Y-4.3349
X5.0288Y-3.1679
X5.0354Y-4.5453
X5.0531Y-3.1219
X5.061Y-3.1888
X5.063Y-4.3246
X5.0819Y-4.3384
X5.0827Y-4.6514
X5.0846Y-4.4291
X5.1023Y-4.3246
X5.1024Y-3.1888
X5.1029Y-2.4191
X5.1043Y-3.1219
X5.1174Y-4.3895
X5.1222Y-4.4703
X5.1417Y-4.6731
X5.142Y-4.3584
X5.1535Y-3.1888
X5.1535Y-3.1219
X5.1594Y-4.4979
X5.185Y-4.1811
X5.2028Y-3.1219
X5.252Y-3.1888
X5.2539Y-4.562
X5.2598Y-4.2311
X5.2598Y-4.6457
X5.2638Y-4.6002
X5.2677Y-4.4291
X5.2756Y-4.5138
X5.2776Y-4.1878
X5.2835Y-4.3917
X5.2873Y-2.4191
X5.3031Y-3.1219
X5.311Y-4.2461
X5.3327Y-2.563
X5.376Y-4.311
X5.3945Y-4.3983
X5.4126Y-4.4164
X5.4173Y-4.374
X5.4716Y-2.4191
X5.4808Y-4.4111
X5.5709Y-4.3169
X5.572Y-5.1024
X5.5846Y-4.5079
X5.6575Y-2.4191
X5.9252Y-4.3474
X5.9291Y-4.4281
X7.6427Y-5.185
X7.6683Y-5.185
T2
X4.6372Y-1.7951
X4.6949Y-2.1357
X4.7237Y-1.7951
X4.8101Y-1.7951
X4.8792Y-2.1357
X4.8966Y-1.7951
X4.983Y-1.7951
X5.0635Y-2.1357
X5.0695Y-1.7951
X5.1559Y-1.7951
X5.2424Y-1.7951
X5.2479Y-2.1357
X5.3288Y-1.7951
X5.4153Y-1.7951
X5.4322Y-2.1357
X5.5017Y-1.7951
X5.5882Y-1.7951
X5.6165Y-2.1357
X5.6746Y-1.7951
X6.8305Y-5.394
T3
X6.7707Y-5.5935
X6.8707Y-5.5935
X7.0089Y-5.5925
X7.1089Y-5.5925
T4
X7.5197Y-5.4474
X7.6181Y-5.4474
X7.6969Y-5.4474
X7.7953Y-5.4474
T5
X6.0531Y-5.8524
X6.2303Y-5.8524
X6.4301Y-5.8529
X6.6073Y-5.8529
T6
X4.8686Y-5.0
X4.9686Y-5.0
X5.0686Y-5.0
X5.1686Y-5.0
X5.6865Y-4.2841
X5.6865Y-4.3841
X5.6865Y-4.4841
X5.6865Y-4.5841
X5.6865Y-4.6841
X5.7865Y-4.2841
X5.7865Y-4.3841
X5.7865Y-4.4841
X5.7865Y-4.5841
X5.7865Y-4.6841
T7
X6.0035Y-5.7543
X6.2795Y-5.7543
X6.3805Y-5.7548
X6.6565Y-5.7548
T8
X7.3988Y-5.5541
X7.9161Y-5.5541
T0
M30
