G04 #@! TF.GenerationSoftware,KiCad,Pcbnew,(6.0.0)*
G04 #@! TF.CreationDate,2023-04-15T12:26:28+10:00*
G04 #@! TF.ProjectId,OpenFlops,4f70656e-466c-46f7-9073-2e6b69636164,1*
G04 #@! TF.SameCoordinates,Original*
G04 #@! TF.FileFunction,Paste,Top*
G04 #@! TF.FilePolarity,Positive*
%FSLAX46Y46*%
G04 Gerber Fmt 4.6, Leading zero omitted, Abs format (unit mm)*
G04 Created by KiCad (PCBNEW (6.0.0)) date 2023-04-15 12:26:28*
%MOMM*%
%LPD*%
G01*
G04 APERTURE LIST*
G04 Aperture macros list*
%AMRoundRect*
0 Rectangle with rounded corners*
0 $1 Rounding radius*
0 $2 $3 $4 $5 $6 $7 $8 $9 X,Y pos of 4 corners*
0 Add a 4 corners polygon primitive as box body*
4,1,4,$2,$3,$4,$5,$6,$7,$8,$9,$2,$3,0*
0 Add four circle primitives for the rounded corners*
1,1,$1+$1,$2,$3*
1,1,$1+$1,$4,$5*
1,1,$1+$1,$6,$7*
1,1,$1+$1,$8,$9*
0 Add four rect primitives between the rounded corners*
20,1,$1+$1,$2,$3,$4,$5,0*
20,1,$1+$1,$4,$5,$6,$7,0*
20,1,$1+$1,$6,$7,$8,$9,0*
20,1,$1+$1,$8,$9,$2,$3,0*%
G04 Aperture macros list end*
G04 #@! TA.AperFunction,Profile*
%ADD10C,0.050000*%
G04 #@! TD*
G04 #@! TA.AperFunction,Profile*
%ADD11C,0.200000*%
G04 #@! TD*
%ADD12RoundRect,0.249924X-0.350000X-0.450000X0.350000X-0.450000X0.350000X0.450000X-0.350000X0.450000X0*%
%ADD13RoundRect,0.249924X-0.450000X0.350000X-0.450000X-0.350000X0.450000X-0.350000X0.450000X0.350000X0*%
%ADD14RoundRect,0.249924X0.450000X-0.350000X0.450000X0.350000X-0.450000X0.350000X-0.450000X-0.350000X0*%
%ADD15R,0.799848X1.899848*%
%ADD16RoundRect,0.249924X-0.337500X-0.475000X0.337500X-0.475000X0.337500X0.475000X-0.337500X0.475000X0*%
%ADD17RoundRect,0.074924X-0.700000X-0.075000X0.700000X-0.075000X0.700000X0.075000X-0.700000X0.075000X0*%
%ADD18RoundRect,0.074924X-0.075000X-0.700000X0.075000X-0.700000X0.075000X0.700000X-0.075000X0.700000X0*%
%ADD19RoundRect,0.249924X0.350000X0.450000X-0.350000X0.450000X-0.350000X-0.450000X0.350000X-0.450000X0*%
%ADD20RoundRect,0.249924X0.475000X-0.337500X0.475000X0.337500X-0.475000X0.337500X-0.475000X-0.337500X0*%
%ADD21R,4.199848X1.999848*%
%ADD22R,1.999848X1.499848*%
%ADD23R,1.999848X3.799848*%
%ADD24R,0.599848X2.299848*%
%ADD25RoundRect,0.249924X-1.050000X-0.550000X1.050000X-0.550000X1.050000X0.550000X-1.050000X0.550000X0*%
%ADD26R,2.399848X3.499848*%
%ADD27RoundRect,0.249924X-0.475000X0.337500X-0.475000X-0.337500X0.475000X-0.337500X0.475000X0.337500X0*%
%ADD28R,0.999848X0.999848*%
%ADD29RoundRect,0.249924X0.337500X0.475000X-0.337500X0.475000X-0.337500X-0.475000X0.337500X-0.475000X0*%
%ADD30RoundRect,0.149924X0.150000X-0.825000X0.150000X0.825000X-0.150000X0.825000X-0.150000X-0.825000X0*%
G04 APERTURE END LIST*
D10*
X207450002Y-129425000D02*
X205275002Y-129425000D01*
X206973979Y-151605672D02*
G75*
G03*
X207448978Y-151129327I-674J475673D01*
G01*
D11*
X118225005Y-75300000D02*
G75*
G03*
X118225005Y-75300000I-1500005J0D01*
G01*
D10*
X154221823Y-42670673D02*
X154200002Y-86645673D01*
X188400001Y-120845674D02*
X200371621Y-120795672D01*
X207450000Y-131600000D02*
X205275000Y-131600000D01*
X110448671Y-151130873D02*
G75*
G03*
X110925018Y-151605876I475675J672D01*
G01*
X207446620Y-127870673D02*
X207450002Y-129425000D01*
X110923432Y-35605876D02*
X147146823Y-35595673D01*
X110923432Y-35605876D02*
G75*
G03*
X110448432Y-36082225I678J-475678D01*
G01*
X205275002Y-129425000D02*
X205275000Y-131600000D01*
X154200002Y-86645673D02*
G75*
G03*
X188400001Y-120845674I34199996J-5D01*
G01*
X207446620Y-127870673D02*
G75*
G03*
X200371621Y-120795672I-7074998J3D01*
G01*
X154221823Y-42670673D02*
G75*
G03*
X147146823Y-35595673I-7075002J-2D01*
G01*
X207448978Y-151129327D02*
X207450000Y-131600000D01*
X110448671Y-151130873D02*
X110448432Y-36082225D01*
X206973979Y-151605672D02*
X110925018Y-151605876D01*
D11*
X185150005Y-127400000D02*
G75*
G03*
X185150005Y-127400000I-1500005J0D01*
G01*
D12*
X127614144Y-61445673D03*
X129614144Y-61445673D03*
X122932071Y-61445674D03*
X124932071Y-61445674D03*
D13*
X137547853Y-45595674D03*
X137547853Y-47595674D03*
D14*
X122177022Y-47595673D03*
X122177022Y-45595673D03*
D15*
X127664142Y-57245672D03*
X129564142Y-57245672D03*
X128614142Y-54245672D03*
D16*
X115512000Y-120245673D03*
X117587000Y-120245673D03*
D17*
X124164399Y-110545673D03*
X124164399Y-111045673D03*
X124164399Y-111545673D03*
X124164399Y-112045673D03*
X124164399Y-112545673D03*
X124164399Y-113045673D03*
X124164399Y-113545673D03*
X124164399Y-114045673D03*
X124164399Y-114545673D03*
X124164399Y-115045673D03*
X124164399Y-115545673D03*
X124164399Y-116045673D03*
X124164399Y-116545673D03*
X124164399Y-117045673D03*
X124164399Y-117545673D03*
X124164399Y-118045673D03*
D18*
X126089399Y-119970673D03*
X126589399Y-119970673D03*
X127089399Y-119970673D03*
X127589399Y-119970673D03*
X128089399Y-119970673D03*
X128589399Y-119970673D03*
X129089399Y-119970673D03*
X129589399Y-119970673D03*
X130089399Y-119970673D03*
X130589399Y-119970673D03*
X131089399Y-119970673D03*
X131589399Y-119970673D03*
X132089399Y-119970673D03*
X132589399Y-119970673D03*
X133089399Y-119970673D03*
X133589399Y-119970673D03*
D17*
X135514399Y-118045673D03*
X135514399Y-117545673D03*
X135514399Y-117045673D03*
X135514399Y-116545673D03*
X135514399Y-116045673D03*
X135514399Y-115545673D03*
X135514399Y-115045673D03*
X135514399Y-114545673D03*
X135514399Y-114045673D03*
X135514399Y-113545673D03*
X135514399Y-113045673D03*
X135514399Y-112545673D03*
X135514399Y-112045673D03*
X135514399Y-111545673D03*
X135514399Y-111045673D03*
X135514399Y-110545673D03*
D18*
X133589399Y-108620673D03*
X133089399Y-108620673D03*
X132589399Y-108620673D03*
X132089399Y-108620673D03*
X131589399Y-108620673D03*
X131089399Y-108620673D03*
X130589399Y-108620673D03*
X130089399Y-108620673D03*
X129589399Y-108620673D03*
X129089399Y-108620673D03*
X128589399Y-108620673D03*
X128089399Y-108620673D03*
X127589399Y-108620673D03*
X127089399Y-108620673D03*
X126589399Y-108620673D03*
X126089399Y-108620673D03*
D12*
X132296214Y-61445673D03*
X134296214Y-61445673D03*
X136978285Y-61445674D03*
X138978285Y-61445674D03*
D14*
X117785356Y-47595673D03*
X117785356Y-45595673D03*
D19*
X174225000Y-138312499D03*
X172225000Y-138312499D03*
D20*
X139211650Y-107953174D03*
X139211650Y-105878174D03*
D14*
X195525000Y-135574999D03*
X195525000Y-133574999D03*
D15*
X137028285Y-57245673D03*
X138928285Y-57245673D03*
X137978285Y-54245673D03*
D14*
X193425000Y-135575000D03*
X193425000Y-133575000D03*
D16*
X145362501Y-81145673D03*
X147437501Y-81145673D03*
X125062000Y-105845672D03*
X127137000Y-105845672D03*
D13*
X133156186Y-45595674D03*
X133156186Y-47595674D03*
D21*
X147225000Y-134150000D03*
X147225000Y-142150000D03*
D22*
X147450002Y-88495674D03*
D23*
X141150002Y-86195674D03*
D22*
X147450002Y-86195674D03*
X147450002Y-83895674D03*
D19*
X180275000Y-138312501D03*
X178275000Y-138312501D03*
D14*
X135352020Y-47595674D03*
X135352020Y-45595674D03*
D24*
X143460356Y-41255674D03*
X142460356Y-41255674D03*
X141460356Y-41255674D03*
X140460356Y-41255674D03*
X139460356Y-41255674D03*
X138460356Y-41255674D03*
X137460356Y-41255674D03*
X136460356Y-41255674D03*
X135460356Y-41255674D03*
X134460356Y-41255674D03*
X133460356Y-41255674D03*
X132460356Y-41255674D03*
X131460356Y-41255674D03*
X130460356Y-41255674D03*
X129460356Y-41255674D03*
X128460356Y-41255674D03*
X127460356Y-41255674D03*
X126460356Y-41255674D03*
X125460356Y-41255674D03*
X124460356Y-41255674D03*
X123460356Y-41255674D03*
X122460356Y-41255674D03*
X121460356Y-41255674D03*
X120460356Y-41255674D03*
X119460356Y-41255674D03*
X118460356Y-41255674D03*
D14*
X130960353Y-47595673D03*
X130960353Y-45595673D03*
D25*
X144500001Y-76445674D03*
X148100001Y-76445674D03*
D26*
X116549500Y-110795673D03*
X116549500Y-115995673D03*
D13*
X119981188Y-45595673D03*
X119981188Y-47595673D03*
D15*
X118300000Y-57245673D03*
X120200000Y-57245673D03*
X119250000Y-54245673D03*
X122982072Y-57245673D03*
X124882072Y-57245673D03*
X123932072Y-54245673D03*
D25*
X144500001Y-95495673D03*
X148100001Y-95495673D03*
D27*
X136049501Y-121058175D03*
X136049501Y-123133175D03*
D13*
X141939518Y-45595673D03*
X141939518Y-47595673D03*
D14*
X139743686Y-47595673D03*
X139743686Y-45595673D03*
X130425000Y-124000000D03*
X130425000Y-122000000D03*
D13*
X124372855Y-45595673D03*
X124372855Y-47595673D03*
D16*
X145812502Y-72145674D03*
X147887502Y-72145674D03*
X115512000Y-106545673D03*
X117587000Y-106545673D03*
D28*
X120500001Y-64645673D03*
X118000001Y-64645673D03*
D14*
X126568689Y-47595673D03*
X126568689Y-45595673D03*
X144135356Y-47595674D03*
X144135356Y-45595674D03*
D19*
X146761649Y-122095673D03*
X144761649Y-122095673D03*
D29*
X123187001Y-108295672D03*
X121112001Y-108295672D03*
D15*
X132346214Y-57245673D03*
X134246214Y-57245673D03*
X133296214Y-54245673D03*
D16*
X145362501Y-91145673D03*
X147437501Y-91145673D03*
D12*
X141700001Y-61445673D03*
X143700001Y-61445673D03*
D27*
X128275000Y-121987500D03*
X128275000Y-124062500D03*
X123550001Y-79108173D03*
X123550001Y-81183173D03*
D30*
X127090001Y-82620673D03*
X128360001Y-82620673D03*
X129630001Y-82620673D03*
X130900001Y-82620673D03*
X132170001Y-82620673D03*
X133440001Y-82620673D03*
X134710001Y-82620673D03*
X134710001Y-77670673D03*
X133440001Y-77670673D03*
X132170001Y-77670673D03*
X130900001Y-77670673D03*
X129630001Y-77670673D03*
X128360001Y-77670673D03*
X127090001Y-77670673D03*
D12*
X118250001Y-61445674D03*
X120250001Y-61445674D03*
D27*
X139211650Y-109953174D03*
X139211650Y-112028174D03*
D15*
X141710356Y-57245673D03*
X143610356Y-57245673D03*
X142660356Y-54245673D03*
D13*
X137100000Y-105850000D03*
X137100000Y-107850000D03*
X128764521Y-45595674D03*
X128764521Y-47595674D03*
M02*
