G04 #@! TF.GenerationSoftware,KiCad,Pcbnew,(6.0.0)*
G04 #@! TF.CreationDate,2023-04-02T19:18:08+10:00*
G04 #@! TF.ProjectId,OpenFlops,4f70656e-466c-46f7-9073-2e6b69636164,1*
G04 #@! TF.SameCoordinates,Original*
G04 #@! TF.FileFunction,Soldermask,Bot*
G04 #@! TF.FilePolarity,Negative*
%FSLAX46Y46*%
G04 Gerber Fmt 4.6, Leading zero omitted, Abs format (unit mm)*
G04 Created by KiCad (PCBNEW (6.0.0)) date 2023-04-02 19:18:08*
%MOMM*%
%LPD*%
G01*
G04 APERTURE LIST*
G04 #@! TA.AperFunction,Profile*
%ADD10C,0.050000*%
G04 #@! TD*
G04 #@! TA.AperFunction,Profile*
%ADD11C,0.200000*%
G04 #@! TD*
%ADD12C,1.428000*%
%ADD13C,3.000000*%
%ADD14R,1.800000X1.800000*%
%ADD15C,1.800000*%
%ADD16R,1.700000X1.700000*%
%ADD17O,1.700000X1.700000*%
%ADD18C,2.100000*%
%ADD19C,1.750000*%
%ADD20C,1.700000*%
G04 APERTURE END LIST*
D10*
X207450002Y-129425000D02*
X205275002Y-129425000D01*
X206973979Y-151605672D02*
G75*
G03*
X207448978Y-151129327I-674J475673D01*
G01*
D11*
X118225005Y-75300000D02*
G75*
G03*
X118225005Y-75300000I-1500005J0D01*
G01*
D10*
X154221823Y-42670673D02*
X154200002Y-86645673D01*
X188400001Y-120845674D02*
X200371621Y-120795672D01*
X207450000Y-131600000D02*
X205275000Y-131600000D01*
X110448671Y-151130873D02*
G75*
G03*
X110925018Y-151605876I475675J672D01*
G01*
X207446620Y-127870673D02*
X207450002Y-129425000D01*
X110923432Y-35605876D02*
X147146823Y-35595673D01*
X110923432Y-35605876D02*
G75*
G03*
X110448432Y-36082225I678J-475678D01*
G01*
X205275002Y-129425000D02*
X205275000Y-131600000D01*
X154200002Y-86645673D02*
G75*
G03*
X188400001Y-120845674I34199996J-5D01*
G01*
X207446620Y-127870673D02*
G75*
G03*
X200371621Y-120795672I-7074998J3D01*
G01*
X154221823Y-42670673D02*
G75*
G03*
X147146823Y-35595673I-7075002J-2D01*
G01*
X207448978Y-151129327D02*
X207450000Y-131600000D01*
X110448671Y-151130873D02*
X110448432Y-36082225D01*
X206973979Y-151605672D02*
X110925018Y-151605876D01*
D11*
X185150005Y-127400000D02*
G75*
G03*
X185150005Y-127400000I-1500005J0D01*
G01*
D10*
X207450002Y-129425000D02*
X205275002Y-129425000D01*
X206973979Y-151605672D02*
G75*
G03*
X207448978Y-151129327I-674J475673D01*
G01*
D11*
X118225005Y-75300000D02*
G75*
G03*
X118225005Y-75300000I-1500005J0D01*
G01*
D10*
X154221823Y-42670673D02*
X154200002Y-86645673D01*
X188400001Y-120845674D02*
X200371621Y-120795672D01*
X207450000Y-131600000D02*
X205275000Y-131600000D01*
X110448671Y-151130873D02*
G75*
G03*
X110925018Y-151605876I475675J672D01*
G01*
X207446620Y-127870673D02*
X207450002Y-129425000D01*
X110923432Y-35605876D02*
X147146823Y-35595673D01*
X110923432Y-35605876D02*
G75*
G03*
X110448432Y-36082225I678J-475678D01*
G01*
X205275002Y-129425000D02*
X205275000Y-131600000D01*
X154200002Y-86645673D02*
G75*
G03*
X188400001Y-120845674I34199996J-5D01*
G01*
X207446620Y-127870673D02*
G75*
G03*
X200371621Y-120795672I-7074998J3D01*
G01*
X154221823Y-42670673D02*
G75*
G03*
X147146823Y-35595673I-7075002J-2D01*
G01*
X207448978Y-151129327D02*
X207450000Y-131600000D01*
X110448671Y-151130873D02*
X110448432Y-36082225D01*
X206973979Y-151605672D02*
X110925018Y-151605876D01*
D11*
X185150005Y-127400000D02*
G75*
G03*
X185150005Y-127400000I-1500005J0D01*
G01*
D12*
X191000000Y-138365000D03*
X193500000Y-138365000D03*
X195500000Y-138365000D03*
X198000000Y-138365000D03*
D13*
X187930000Y-141075000D03*
X201070000Y-141075000D03*
D14*
X178025000Y-142050000D03*
D15*
X180565000Y-142050000D03*
D16*
X123662500Y-127000000D03*
D17*
X126202500Y-127000000D03*
X128742500Y-127000000D03*
X131282500Y-127000000D03*
D18*
X169075000Y-146172500D03*
X162065000Y-146172500D03*
D19*
X167825000Y-148662500D03*
X163325000Y-148662500D03*
D14*
X171975000Y-142075000D03*
D15*
X174515000Y-142075000D03*
D20*
X144436649Y-108815673D03*
D17*
X146976649Y-108815673D03*
X144436649Y-111355673D03*
X146976649Y-111355673D03*
X144436649Y-113895673D03*
X146976649Y-113895673D03*
X144436649Y-116435673D03*
X146976649Y-116435673D03*
X144436649Y-118975673D03*
X146976649Y-118975673D03*
D19*
X153750000Y-148650000D03*
X158250000Y-148650000D03*
D18*
X152490000Y-146160000D03*
X159500000Y-146160000D03*
M02*
